<svg xmlns="http://www.w3.org/2000/svg" width="40" height="40" viewBox="0 0 40 40" aria-hidden="true">
  <path d="M30 16.25C30 15.73 29.97 15.22 29.92 14.72C29.84 14.03 30.33 13.42 31.02 13.34C31.71 13.27 32.32 13.76 32.4 14.45C32.47 15.04 32.5 15.64 32.5 16.25C32.5 25.22 25.22 32.5 16.25 32.5C11.14 32.5 6.59 30.14 3.61 26.46C3.18 25.93 3.26 25.14 3.8 24.71C4.33 24.27 5.12 24.36 5.56 24.89C8.08 28.01 11.93 30 16.25 30C23.84 30 30 23.84 30 16.25ZM0 16.25C0 7.28 7.28 0 16.25 0C21.36 0 25.91 2.36 28.89 6.04C29.32 6.57 29.24 7.36 28.7 7.79C28.17 8.23 27.38 8.14 26.94 7.61C24.42 4.49 20.57 2.5 16.25 2.5C8.66 2.5 2.5 8.66 2.5 16.25C2.5 16.77 2.53 17.28 2.58 17.78C2.66 18.47 2.17 19.08 1.48 19.16C0.79 19.23 0.18 18.74 0.1 18.05C0.03 17.46 0 16.86 0 16.25Z" transform="translate(3.75 3.75)" fill="#FFF311" fill-rule="nonzero" />
  <path d="M6.67 2.92L6.67 1.25C6.67 0.56 7.23 0 7.92 0C8.61 0 9.17 0.56 9.17 1.25L9.17 2.92C9.17 4.06 9.17 5.04 9.06 5.83C8.95 6.65 8.7 7.43 8.07 8.07C7.43 8.7 6.65 8.95 5.83 9.06C5.04 9.17 4.06 9.17 2.92 9.17L1.25 9.17C0.56 9.17 0 8.61 0 7.92C0 7.23 0.56 6.67 1.25 6.67L2.92 6.67C4.13 6.67 4.92 6.66 5.49 6.59C6.04 6.51 6.21 6.4 6.3 6.3C6.4 6.21 6.51 6.04 6.59 5.49C6.66 4.92 6.67 4.13 6.67 2.92Z" transform="translate(25.41666603088379 3.75)" fill="#FFF311" fill-rule="nonzero" />
  <path d="M0 7.92L0 6.25C0 5.11 0 4.12 0.1 3.34C0.21 2.52 0.46 1.74 1.1 1.1C1.74 0.46 2.52 0.21 3.34 0.1C4.12 0 5.11 0 6.25 0L7.92 0C8.61 0 9.17 0.56 9.17 1.25C9.17 1.94 8.61 2.5 7.92 2.5L6.25 2.5C5.04 2.5 4.25 2.5 3.67 2.58C3.13 2.65 2.96 2.77 2.87 2.87C2.77 2.96 2.65 3.13 2.58 3.67C2.5 4.25 2.5 5.04 2.5 6.25L2.5 7.92C2.5 8.61 1.94 9.17 1.25 9.17C0.56 9.17 0 8.61 0 7.92Z" transform="translate(5.416659355163574 27.08332633972168)" fill="#FFF311" fill-rule="nonzero" />
</svg>
