<svg width="132" height="32" viewBox="44.834 30 132 32" fill="none" xmlns="http://www.w3.org/2000/svg">
<g clip-path="url(#clip0_4479_2304)">
<mask id="mask0_4479_2304" style="mask-type:luminance" maskUnits="userSpaceOnUse" x="44" y="30" width="33" height="32">
<path d="M76.834 30H44.834V62H76.834V30Z" fill="white"/>
</mask>
<g mask="url(#mask0_4479_2304)">
<path fill-rule="evenodd" clip-rule="evenodd" d="M66.834 30.1V30H54.834C49.334 30 44.834 34.5 44.834 40V52C44.834 56.1 47.334 59.6 50.834 61.2V55.4C50.834 49.9 55.134 45.2 60.634 45.1C66.234 45.1 70.834 49.5 70.834 55.1V61.3C74.334 59.8 76.834 56.2 76.834 52.1V40.1C76.834 34.6 72.334 30.1 66.834 30.1ZM60.834 43C58.634 43 56.834 41.2 56.834 39C56.834 36.8 58.634 35 60.834 35C63.034 35 64.834 36.8 64.834 39C64.834 41.2 63.034 43 60.834 43Z" fill="#9B9B9B"/>
<path fill-rule="evenodd" clip-rule="evenodd" d="M64.3348 53.9C64.1348 54.2 63.8348 54.4 63.5348 54.4H63.4348C62.9348 54.4 62.5348 54.7001 62.5348 55.2001L61.2848 61.41V61.48L61.1348 62L60.9448 61.06V60.99L59.9348 55.1C59.7348 54.6 59.4348 54.3 58.9348 54.3H58.8348C58.5348 54.3 58.2348 54.1 58.0348 53.8C57.8348 53.5 57.8348 53.2 58.0348 52.9L60.4348 48.8C60.6348 48.5 60.9348 48.3 61.2348 48.3C61.5348 48.3 61.8348 48.5 62.0348 48.8L64.3348 53C64.5348 53.3 64.5348 53.6 64.3348 53.9Z" fill="#9B9B9B"/>
</g>
<path d="M164.348 54.5568L168.771 48.1672L164.668 42.3228H168.356L170.597 45.5473L172.826 42.3228H176.538L172.435 48.1909L176.834 54.5568H173.241L170.621 50.7989L167.976 54.5568H164.348Z" fill="#9B9B9B"/>
<path d="M152.266 48.416C152.266 47.7837 152.341 47.1673 152.491 46.5666C152.641 45.966 152.878 45.397 153.203 44.8595C153.527 44.3221 153.922 43.8519 154.388 43.4488C154.855 43.0379 155.424 42.7139 156.096 42.4768C156.768 42.2397 157.507 42.1211 158.313 42.1211C159.151 42.1211 159.914 42.2397 160.602 42.4768C161.29 42.7139 161.859 43.03 162.309 43.4251C162.768 43.8124 163.155 44.2668 163.471 44.7884C163.788 45.31 164.013 45.8474 164.147 46.4007C164.29 46.9539 164.361 47.519 164.361 48.0959C164.361 48.4594 164.345 48.823 164.313 49.1865H155.527C155.645 50.0559 155.969 50.7395 156.499 51.2374C157.037 51.7353 157.724 51.9842 158.562 51.9842C159.969 51.9842 160.811 51.4587 161.088 50.4075H164.384C164.139 51.7274 163.483 52.7824 162.416 53.5727C161.357 54.3552 160.072 54.7464 158.562 54.7464C157.566 54.7464 156.657 54.5646 155.835 54.201C155.021 53.8296 154.357 53.3396 153.843 52.7311C153.337 52.1225 152.946 51.4468 152.669 50.7039C152.4 49.961 152.266 49.1984 152.266 48.416ZM155.574 47.0527H160.981C160.934 46.3414 160.673 45.7566 160.199 45.2982C159.724 44.8319 159.096 44.5987 158.313 44.5987C156.772 44.5987 155.859 45.4167 155.574 47.0527Z" fill="#9B9B9B"/>
<path d="M140.621 54.5568V37.5571H152.182V40.6986H144.261V44.4803H150.581V47.6336H144.261V54.5568H140.621Z" fill="#9B9B9B"/>
<path d="M126.665 53.0394C125.629 51.8934 125.111 50.3602 125.111 48.4398C125.111 46.5193 125.625 44.9861 126.653 43.8402C127.688 42.6942 129.088 42.1212 130.85 42.1212C131.601 42.1212 132.265 42.2556 132.843 42.5243C133.428 42.7851 133.894 43.1447 134.242 43.6031V37H137.621V54.5568H134.242V53.2172C133.902 53.6914 133.435 54.0668 132.843 54.3434C132.25 54.6121 131.601 54.7465 130.898 54.7465C129.111 54.7465 127.7 54.1775 126.665 53.0394ZM128.467 48.4398C128.467 49.4593 128.74 50.2812 129.285 50.9056C129.831 51.5299 130.554 51.8421 131.455 51.8421C132.356 51.8421 133.08 51.5299 133.625 50.9056C134.171 50.2812 134.443 49.4593 134.443 48.4398C134.443 47.4045 134.171 46.5746 133.625 45.9503C133.08 45.3259 132.356 45.0138 131.455 45.0138C130.554 45.0138 129.831 45.3259 129.285 45.9503C128.74 46.5746 128.467 47.4045 128.467 48.4398Z" fill="#9B9B9B"/>
<path d="M112.602 46.5429C112.673 45.2705 113.194 44.2154 114.167 43.3777C115.147 42.54 116.451 42.1211 118.08 42.1211C119.637 42.1211 120.918 42.54 121.922 43.3777C122.926 44.2154 123.428 45.3179 123.428 46.6852V54.5567H120.072V52.8615C119.866 53.4305 119.451 53.8889 118.827 54.2366C118.202 54.5764 117.471 54.7464 116.633 54.7464C115.455 54.7464 114.491 54.3986 113.74 53.7032C112.997 53.0077 112.625 52.1344 112.625 51.0833C112.625 49.8899 113.032 48.9494 113.847 48.2618C114.661 47.5743 115.744 47.2305 117.096 47.2305H119.159C119.451 47.2305 119.677 47.1475 119.835 46.9815C119.993 46.8156 120.072 46.5982 120.072 46.3295C120.072 45.8079 119.878 45.3891 119.491 45.0729C119.104 44.7568 118.57 44.5987 117.89 44.5987C117.187 44.5987 116.637 44.7884 116.242 45.1678C115.847 45.5392 115.637 45.9976 115.613 46.5429H112.602ZM115.851 50.941C115.851 51.3441 116.001 51.672 116.301 51.9249C116.609 52.1778 117.001 52.3043 117.475 52.3043C118.273 52.3043 118.906 52.0435 119.372 51.5219C119.839 50.9924 120.072 50.3285 120.072 49.5303V49.3643H117.606C117.092 49.3643 116.669 49.5105 116.337 49.803C116.013 50.0875 115.851 50.4668 115.851 50.941Z" fill="#9B9B9B"/>
<path d="M99.0957 48.416C99.0957 47.7837 99.1708 47.1673 99.321 46.5666C99.4712 45.966 99.7083 45.397 100.032 44.8595C100.357 44.3221 100.752 43.8519 101.218 43.4488C101.685 43.0379 102.254 42.7139 102.926 42.4768C103.598 42.2397 104.337 42.1211 105.143 42.1211C105.981 42.1211 106.744 42.2397 107.432 42.4768C108.119 42.7139 108.689 43.03 109.139 43.4251C109.598 43.8124 109.985 44.2668 110.301 44.7884C110.617 45.31 110.843 45.8474 110.977 46.4007C111.119 46.9539 111.191 47.519 111.191 48.0959C111.191 48.4594 111.175 48.823 111.143 49.1865H102.357C102.475 50.0559 102.799 50.7395 103.329 51.2374C103.866 51.7353 104.554 51.9842 105.392 51.9842C106.799 51.9842 107.641 51.4587 107.918 50.4075H111.214C110.969 51.7274 110.313 52.7824 109.246 53.5727C108.187 54.3552 106.902 54.7464 105.392 54.7464C104.396 54.7464 103.487 54.5646 102.665 54.201C101.851 53.8296 101.187 53.3396 100.673 52.7311C100.167 52.1225 99.7755 51.4468 99.4988 50.7039C99.2301 49.961 99.0957 49.1984 99.0957 48.416ZM102.404 47.0527H107.811C107.764 46.3414 107.503 45.7566 107.029 45.2982C106.554 44.8319 105.926 44.5987 105.143 44.5987C103.602 44.5987 102.689 45.4167 102.404 47.0527Z" fill="#9B9B9B"/>
<path d="M86.834 54.5568V37.5571H90.498V51.4034H98.2293V54.5568H86.834Z" fill="#9B9B9B"/>
</g>
<defs>
<clipPath id="clip0_4479_2304">
<rect width="132" height="32" fill="white" transform="translate(44.834 30)"/>
</clipPath>
</defs>
</svg>
